<?xml version="1.0" encoding="UTF-8"?>
<svg id="logosandtypes_com" data-name="logosandtypes com" xmlns="http://www.w3.org/2000/svg" viewBox="0 0 150 150">
  <defs>
    <style>
      .cls-1 {
        fill: none;
      }

      .cls-2 {
        fill: #10b981;
      }
    </style>
  </defs>
  <g id="Layer_3" data-name="Layer 3">
    <g id="Layer_2" data-name="Layer 2">
      <path id="Layer_3-2" data-name="Layer 3-2" class="cls-1" d="M0,0H150V150H0V0Z"/>
    </g>
  </g>
  <path class="cls-2" d="M71.93,103.12c0,9.68-.04,19.45-.06,29.14,.75,7.6-5.09,14.16-12.93,13.29-2.56-.3-4.41-1.6-5.2-4.04-.51-1.55-.94-3.22-.94-4.84,0-11.94,.22-23.81,.26-35.75-13.49-4.19-25.01-11.43-34.64-21.66-1.84-1.95-3.6-3.99-4.94-6.8,4.12-.19,7.98-.36,12.06-.54,.47-4.16,.94-8.27,1.4-12.38,7.58,8.98,14.7,18.04,26.36,22.5,.23-21.73,.25-43.36,.9-65.07,.04-1.19,.21-2.4,.48-3.57,1.13-4.8,5.38-5.76,9.67-4.47,9.25,2.11,7.34,8.81,7.54,16.56,5.38-7.13,11.5-13.12,20.19-15.79,11.99-3.75,30.07,.08,37.64,17.02,3.84,8.59,4.88,17.63,4.3,26.91-.87,21.5-15.84,40.23-36.49,45.99-8.1,2.61-16.51,3.11-24.96,3.16-.13,0-.26,.13-.65,.35Zm.55-18.29c15.24,.81,30.22-3.7,37.69-18.05,4.91-9.06,5.52-22.74,1.18-32.1-5.57-10.99-18.73-10.33-26.57-2.11-11.97,11.49-11.36,26.09-12.26,41.39-.18,3.52-.03,7.06-.03,10.87Z"/>
</svg>